<?xml version="1.0" standalone="no"?>
<!DOCTYPE svg PUBLIC "-//W3C//DTD SVG 20010904//EN"
 "http://www.w3.org/TR/2001/REC-SVG-20010904/DTD/svg10.dtd">
<svg version="1.0" xmlns="http://www.w3.org/2000/svg"
 width="1096.000000pt" height="1096.000000pt" viewBox="0 0 1096.000000 1096.000000"
 preserveAspectRatio="xMidYMid meet">
<metadata>
Created by potrace 1.14, written by Peter Selinger 2001-2017
</metadata>
<g transform="translate(0.000000,1096.000000) scale(0.100000,-0.100000)"
fill="#000000" stroke="none">
<path d="M5367 10954 c-1 -1 -69 -4 -152 -8 -82 -3 -166 -8 -185 -10 -19 -2
-69 -7 -110 -11 -81 -7 -108 -10 -215 -26 -38 -6 -83 -13 -100 -15 -16 -2 -41
-6 -55 -9 -14 -3 -41 -7 -60 -10 -19 -3 -42 -8 -50 -10 -8 -2 -31 -7 -50 -10
-154 -26 -461 -109 -680 -184 -573 -194 -1120 -491 -1602 -867 -57 -45 -111
-88 -119 -96 -8 -7 -27 -24 -44 -37 -103 -79 -407 -375 -547 -531 -463 -518
-834 -1135 -1062 -1770 -21 -58 -41 -112 -44 -120 -3 -8 -6 -17 -7 -20 -1 -3
-15 -50 -33 -105 -34 -109 -91 -315 -98 -355 -3 -14 -7 -33 -10 -42 -3 -10 -7
-28 -10 -40 -2 -13 -6 -33 -9 -45 -3 -13 -7 -31 -9 -42 -2 -10 -7 -35 -10 -56
-4 -20 -8 -40 -10 -44 -2 -3 -7 -26 -10 -51 -3 -25 -8 -56 -11 -69 -2 -14 -9
-61 -15 -105 -6 -45 -13 -92 -16 -106 -2 -14 -7 -54 -10 -90 -3 -36 -7 -78 -9
-95 -25 -267 -25 -870 0 -990 3 -11 7 -54 10 -95 5 -69 37 -302 50 -360 3 -14
8 -41 11 -60 23 -155 106 -478 181 -705 328 -999 938 -1881 1769 -2555 84 -68
345 -259 403 -295 9 -5 29 -19 46 -30 16 -11 37 -24 47 -30 9 -5 70 -42 135
-82 177 -107 415 -231 583 -303 41 -18 89 -38 105 -45 127 -56 422 -161 560
-200 279 -78 441 -115 660 -150 76 -13 241 -35 295 -40 36 -4 79 -8 95 -10 93
-12 298 -19 500 -19 215 0 490 10 504 18 3 2 46 7 95 10 48 3 91 8 95 10 3 2
34 7 69 10 34 4 86 11 115 17 29 5 68 12 87 15 341 54 836 201 1180 350 19 9
44 19 55 24 11 4 103 48 205 98 216 105 402 210 585 329 117 77 332 228 345
243 3 3 37 30 75 59 39 30 75 59 80 65 6 6 32 29 60 51 113 90 444 414 557
545 556 642 937 1335 1161 2115 34 117 101 396 112 465 3 19 8 46 10 60 3 14
8 36 10 50 3 14 7 41 10 60 3 19 7 46 10 59 2 13 7 49 10 80 4 31 8 67 11 81
2 14 6 57 10 95 3 39 7 81 10 95 22 134 21 727 -1 940 -2 19 -6 64 -9 100 -4
36 -8 76 -10 90 -3 14 -7 48 -11 75 -7 64 -54 345 -61 367 -3 10 -7 30 -10 45
-6 32 -64 268 -88 357 -9 32 -37 122 -62 200 -443 1356 -1417 2500 -2689 3157
-490 253 -961 415 -1525 524 -41 7 -97 17 -125 21 -27 3 -57 8 -67 9 -9 2 -38
6 -65 10 -26 4 -59 9 -73 11 -14 2 -65 6 -115 10 -49 3 -92 8 -95 9 -12 7
-555 25 -563 19z"/>
</g>
</svg>
